<mxfile host="Electron" agent="Mozilla/5.0 (X11; Linux x86_64) AppleWebKit/537.36 (KHTML, like Gecko) draw.io/24.7.5 Chrome/126.0.6478.183 Electron/31.3.0 Safari/537.36" version="24.7.5">
  <diagram name="Page-1" id="Qlh_XA0-KrwhdjCGiX6F">
    <mxGraphModel dx="1760" dy="1090" grid="1" gridSize="10" guides="1" tooltips="1" connect="1" arrows="1" fold="1" page="1" pageScale="1" pageWidth="827" pageHeight="1169" math="0" shadow="0">
      <root>
        <mxCell id="0" />
        <mxCell id="1" parent="0" />
        <mxCell id="NyMUniim3CBgUQEtmCb4-32" style="edgeStyle=orthogonalEdgeStyle;rounded=0;orthogonalLoop=1;jettySize=auto;html=1;exitX=0.5;exitY=1;exitDx=0;exitDy=0;shape=link;" edge="1" parent="1" source="NyMUniim3CBgUQEtmCb4-2">
          <mxGeometry relative="1" as="geometry">
            <mxPoint x="400" y="110" as="targetPoint" />
          </mxGeometry>
        </mxCell>
        <mxCell id="NyMUniim3CBgUQEtmCb4-2" value="" style="shape=offPageConnector;whiteSpace=wrap;html=1;rotation=-90;fillColor=#f8cecc;strokeColor=#b85450;" vertex="1" parent="1">
          <mxGeometry x="297.5" y="70" width="35" height="80" as="geometry" />
        </mxCell>
        <mxCell id="NyMUniim3CBgUQEtmCb4-4" value="A" style="text;html=1;align=center;verticalAlign=middle;resizable=0;points=[];autosize=1;strokeColor=none;fillColor=none;" vertex="1" parent="1">
          <mxGeometry x="287.5" y="95" width="30" height="30" as="geometry" />
        </mxCell>
        <mxCell id="NyMUniim3CBgUQEtmCb4-5" value="" style="shape=offPageConnector;whiteSpace=wrap;html=1;rotation=-90;fillColor=#e1d5e7;strokeColor=#9673a6;" vertex="1" parent="1">
          <mxGeometry x="297.5" y="140" width="35" height="80" as="geometry" />
        </mxCell>
        <mxCell id="NyMUniim3CBgUQEtmCb4-6" value="B" style="text;html=1;align=center;verticalAlign=middle;resizable=0;points=[];autosize=1;strokeColor=none;fillColor=none;" vertex="1" parent="1">
          <mxGeometry x="287.5" y="165" width="30" height="30" as="geometry" />
        </mxCell>
        <mxCell id="NyMUniim3CBgUQEtmCb4-35" style="edgeStyle=orthogonalEdgeStyle;rounded=0;orthogonalLoop=1;jettySize=auto;html=1;exitX=0;exitY=0.25;exitDx=0;exitDy=0;exitPerimeter=0;endArrow=none;endFill=0;fillColor=#f8cecc;strokeColor=#b85450;" edge="1" parent="1" source="NyMUniim3CBgUQEtmCb4-7">
          <mxGeometry relative="1" as="geometry">
            <mxPoint x="400" y="110" as="targetPoint" />
            <Array as="points">
              <mxPoint x="400" y="120" />
            </Array>
          </mxGeometry>
        </mxCell>
        <mxCell id="NyMUniim3CBgUQEtmCb4-36" style="edgeStyle=orthogonalEdgeStyle;rounded=0;orthogonalLoop=1;jettySize=auto;html=1;exitX=0;exitY=0.75;exitDx=0;exitDy=0;exitPerimeter=0;endArrow=none;endFill=0;fillColor=#e1d5e7;strokeColor=#9673a6;" edge="1" parent="1" source="NyMUniim3CBgUQEtmCb4-7">
          <mxGeometry relative="1" as="geometry">
            <mxPoint x="430" y="155.18181818181813" as="targetPoint" />
            <Array as="points">
              <mxPoint x="430" y="150" />
            </Array>
          </mxGeometry>
        </mxCell>
        <mxCell id="NyMUniim3CBgUQEtmCb4-65" style="edgeStyle=orthogonalEdgeStyle;rounded=0;orthogonalLoop=1;jettySize=auto;html=1;exitX=1;exitY=0.5;exitDx=0;exitDy=0;exitPerimeter=0;fillColor=#dae8fc;strokeColor=#6c8ebf;endArrow=none;endFill=0;" edge="1" parent="1" source="NyMUniim3CBgUQEtmCb4-7">
          <mxGeometry relative="1" as="geometry">
            <mxPoint x="810" y="410" as="targetPoint" />
            <Array as="points">
              <mxPoint x="750" y="135" />
              <mxPoint x="750" y="410" />
            </Array>
          </mxGeometry>
        </mxCell>
        <mxCell id="NyMUniim3CBgUQEtmCb4-7" value="" style="verticalLabelPosition=bottom;shadow=0;dashed=0;align=center;html=1;verticalAlign=top;shape=mxgraph.electrical.logic_gates.logic_gate;operation=or;fillColor=#dae8fc;strokeColor=#6c8ebf;" vertex="1" parent="1">
          <mxGeometry x="520" y="105" width="100" height="60" as="geometry" />
        </mxCell>
        <mxCell id="NyMUniim3CBgUQEtmCb4-47" style="edgeStyle=orthogonalEdgeStyle;rounded=0;orthogonalLoop=1;jettySize=auto;html=1;exitX=0;exitY=0.25;exitDx=0;exitDy=0;exitPerimeter=0;endArrow=none;endFill=0;fillColor=#f8cecc;strokeColor=#b85450;" edge="1" parent="1" source="NyMUniim3CBgUQEtmCb4-11">
          <mxGeometry relative="1" as="geometry">
            <mxPoint x="480" y="120" as="targetPoint" />
          </mxGeometry>
        </mxCell>
        <mxCell id="NyMUniim3CBgUQEtmCb4-50" style="edgeStyle=orthogonalEdgeStyle;rounded=0;orthogonalLoop=1;jettySize=auto;html=1;exitX=0;exitY=0.75;exitDx=0;exitDy=0;exitPerimeter=0;endArrow=none;endFill=0;fillColor=#e1d5e7;strokeColor=#9673a6;" edge="1" parent="1" source="NyMUniim3CBgUQEtmCb4-11">
          <mxGeometry relative="1" as="geometry">
            <mxPoint x="500" y="150" as="targetPoint" />
          </mxGeometry>
        </mxCell>
        <mxCell id="NyMUniim3CBgUQEtmCb4-78" style="edgeStyle=orthogonalEdgeStyle;rounded=0;orthogonalLoop=1;jettySize=auto;html=1;endArrow=none;endFill=0;fillColor=#d5e8d4;strokeColor=#82b366;" edge="1" parent="1" source="NyMUniim3CBgUQEtmCb4-11">
          <mxGeometry relative="1" as="geometry">
            <mxPoint x="810" y="450" as="targetPoint" />
            <Array as="points">
              <mxPoint x="690" y="215" />
              <mxPoint x="690" y="450" />
            </Array>
          </mxGeometry>
        </mxCell>
        <mxCell id="NyMUniim3CBgUQEtmCb4-11" value="" style="verticalLabelPosition=bottom;shadow=0;dashed=0;align=center;html=1;verticalAlign=top;shape=mxgraph.electrical.logic_gates.logic_gate;operation=and;fillColor=#d5e8d4;strokeColor=#82b366;" vertex="1" parent="1">
          <mxGeometry x="520" y="185" width="100" height="60" as="geometry" />
        </mxCell>
        <mxCell id="NyMUniim3CBgUQEtmCb4-49" style="edgeStyle=orthogonalEdgeStyle;rounded=0;orthogonalLoop=1;jettySize=auto;html=1;exitX=0;exitY=0.25;exitDx=0;exitDy=0;exitPerimeter=0;endArrow=none;endFill=0;fillColor=#f8cecc;strokeColor=#b85450;" edge="1" parent="1" source="NyMUniim3CBgUQEtmCb4-13">
          <mxGeometry relative="1" as="geometry">
            <mxPoint x="480" y="190.00000000000006" as="targetPoint" />
          </mxGeometry>
        </mxCell>
        <mxCell id="NyMUniim3CBgUQEtmCb4-51" style="edgeStyle=orthogonalEdgeStyle;rounded=0;orthogonalLoop=1;jettySize=auto;html=1;exitX=0;exitY=0.75;exitDx=0;exitDy=0;exitPerimeter=0;endArrow=none;endFill=0;fillColor=#e1d5e7;strokeColor=#9673a6;" edge="1" parent="1" source="NyMUniim3CBgUQEtmCb4-13">
          <mxGeometry relative="1" as="geometry">
            <mxPoint x="500" y="220" as="targetPoint" />
          </mxGeometry>
        </mxCell>
        <mxCell id="NyMUniim3CBgUQEtmCb4-74" style="edgeStyle=orthogonalEdgeStyle;rounded=0;orthogonalLoop=1;jettySize=auto;html=1;fillColor=#b0e3e6;strokeColor=#0e8088;endArrow=none;endFill=0;" edge="1" parent="1" source="NyMUniim3CBgUQEtmCb4-13">
          <mxGeometry relative="1" as="geometry">
            <mxPoint x="810" y="490" as="targetPoint" />
            <Array as="points">
              <mxPoint x="650" y="290" />
              <mxPoint x="650" y="490" />
            </Array>
          </mxGeometry>
        </mxCell>
        <mxCell id="NyMUniim3CBgUQEtmCb4-13" value="" style="verticalLabelPosition=bottom;shadow=0;dashed=0;align=center;html=1;verticalAlign=top;shape=mxgraph.electrical.logic_gates.logic_gate;operation=xor;fillColor=#b0e3e6;strokeColor=#0e8088;" vertex="1" parent="1">
          <mxGeometry x="520" y="260" width="100" height="60" as="geometry" />
        </mxCell>
        <mxCell id="NyMUniim3CBgUQEtmCb4-41" style="edgeStyle=orthogonalEdgeStyle;rounded=0;orthogonalLoop=1;jettySize=auto;html=1;exitX=0;exitY=0.25;exitDx=0;exitDy=0;exitPerimeter=0;endArrow=none;endFill=0;fillColor=#f8cecc;strokeColor=#b85450;" edge="1" parent="1" source="NyMUniim3CBgUQEtmCb4-14">
          <mxGeometry relative="1" as="geometry">
            <mxPoint x="400" y="390" as="targetPoint" />
          </mxGeometry>
        </mxCell>
        <mxCell id="NyMUniim3CBgUQEtmCb4-42" style="edgeStyle=orthogonalEdgeStyle;rounded=0;orthogonalLoop=1;jettySize=auto;html=1;exitX=0;exitY=0.75;exitDx=0;exitDy=0;exitPerimeter=0;endArrow=none;endFill=0;fillColor=#e1d5e7;strokeColor=#9673a6;" edge="1" parent="1" source="NyMUniim3CBgUQEtmCb4-14">
          <mxGeometry relative="1" as="geometry">
            <mxPoint x="430" y="420.28571428571433" as="targetPoint" />
          </mxGeometry>
        </mxCell>
        <mxCell id="NyMUniim3CBgUQEtmCb4-66" style="edgeStyle=orthogonalEdgeStyle;rounded=0;orthogonalLoop=1;jettySize=auto;html=1;exitX=1;exitY=0.5;exitDx=0;exitDy=0;exitPerimeter=0;fillColor=#dae8fc;strokeColor=#6c8ebf;endArrow=none;endFill=0;" edge="1" parent="1" source="NyMUniim3CBgUQEtmCb4-14">
          <mxGeometry relative="1" as="geometry">
            <mxPoint x="810" y="410" as="targetPoint" />
            <Array as="points">
              <mxPoint x="810" y="405" />
            </Array>
          </mxGeometry>
        </mxCell>
        <mxCell id="NyMUniim3CBgUQEtmCb4-14" value="" style="verticalLabelPosition=bottom;shadow=0;dashed=0;align=center;html=1;verticalAlign=top;shape=mxgraph.electrical.logic_gates.logic_gate;operation=or;fillColor=#dae8fc;strokeColor=#6c8ebf;" vertex="1" parent="1">
          <mxGeometry x="520" y="375" width="100" height="60" as="geometry" />
        </mxCell>
        <mxCell id="NyMUniim3CBgUQEtmCb4-43" style="edgeStyle=orthogonalEdgeStyle;rounded=0;orthogonalLoop=1;jettySize=auto;html=1;exitX=0;exitY=0.25;exitDx=0;exitDy=0;exitPerimeter=0;endArrow=none;endFill=0;fillColor=#f8cecc;strokeColor=#b85450;" edge="1" parent="1" source="NyMUniim3CBgUQEtmCb4-15">
          <mxGeometry relative="1" as="geometry">
            <mxPoint x="480" y="390" as="targetPoint" />
          </mxGeometry>
        </mxCell>
        <mxCell id="NyMUniim3CBgUQEtmCb4-45" style="edgeStyle=orthogonalEdgeStyle;rounded=0;orthogonalLoop=1;jettySize=auto;html=1;exitX=0;exitY=0.75;exitDx=0;exitDy=0;exitPerimeter=0;endArrow=none;endFill=0;fillColor=#e1d5e7;strokeColor=#9673a6;" edge="1" parent="1" source="NyMUniim3CBgUQEtmCb4-15">
          <mxGeometry relative="1" as="geometry">
            <mxPoint x="499.9999999999999" y="420" as="targetPoint" />
          </mxGeometry>
        </mxCell>
        <mxCell id="NyMUniim3CBgUQEtmCb4-79" style="edgeStyle=orthogonalEdgeStyle;rounded=0;orthogonalLoop=1;jettySize=auto;html=1;exitX=1;exitY=0.5;exitDx=0;exitDy=0;exitPerimeter=0;endArrow=none;endFill=0;fillColor=#d5e8d4;strokeColor=#82b366;" edge="1" parent="1" source="NyMUniim3CBgUQEtmCb4-15">
          <mxGeometry relative="1" as="geometry">
            <mxPoint x="689.9999999999998" y="450" as="targetPoint" />
          </mxGeometry>
        </mxCell>
        <mxCell id="NyMUniim3CBgUQEtmCb4-15" value="" style="verticalLabelPosition=bottom;shadow=0;dashed=0;align=center;html=1;verticalAlign=top;shape=mxgraph.electrical.logic_gates.logic_gate;operation=and;fillColor=#d5e8d4;strokeColor=#82b366;" vertex="1" parent="1">
          <mxGeometry x="520" y="450" width="100" height="60" as="geometry" />
        </mxCell>
        <mxCell id="NyMUniim3CBgUQEtmCb4-44" style="edgeStyle=orthogonalEdgeStyle;rounded=0;orthogonalLoop=1;jettySize=auto;html=1;exitX=0;exitY=0.25;exitDx=0;exitDy=0;exitPerimeter=0;endArrow=none;endFill=0;fillColor=#f8cecc;strokeColor=#b85450;" edge="1" parent="1" source="NyMUniim3CBgUQEtmCb4-16">
          <mxGeometry relative="1" as="geometry">
            <mxPoint x="480" y="460" as="targetPoint" />
          </mxGeometry>
        </mxCell>
        <mxCell id="NyMUniim3CBgUQEtmCb4-46" style="edgeStyle=orthogonalEdgeStyle;rounded=0;orthogonalLoop=1;jettySize=auto;html=1;exitX=0;exitY=0.75;exitDx=0;exitDy=0;exitPerimeter=0;endArrow=none;endFill=0;fillColor=#e1d5e7;strokeColor=#9673a6;" edge="1" parent="1" source="NyMUniim3CBgUQEtmCb4-16">
          <mxGeometry relative="1" as="geometry">
            <mxPoint x="499.9999999999999" y="490" as="targetPoint" />
          </mxGeometry>
        </mxCell>
        <mxCell id="NyMUniim3CBgUQEtmCb4-76" style="edgeStyle=orthogonalEdgeStyle;rounded=0;orthogonalLoop=1;jettySize=auto;html=1;fillColor=#b0e3e6;strokeColor=#0e8088;endArrow=none;endFill=0;" edge="1" parent="1" source="NyMUniim3CBgUQEtmCb4-16">
          <mxGeometry relative="1" as="geometry">
            <mxPoint x="810" y="490" as="targetPoint" />
            <Array as="points">
              <mxPoint x="650" y="555" />
              <mxPoint x="650" y="490" />
            </Array>
          </mxGeometry>
        </mxCell>
        <mxCell id="NyMUniim3CBgUQEtmCb4-16" value="" style="verticalLabelPosition=bottom;shadow=0;dashed=0;align=center;html=1;verticalAlign=top;shape=mxgraph.electrical.logic_gates.logic_gate;operation=xor;fillColor=#b0e3e6;strokeColor=#0e8088;" vertex="1" parent="1">
          <mxGeometry x="520" y="525" width="100" height="60" as="geometry" />
        </mxCell>
        <mxCell id="NyMUniim3CBgUQEtmCb4-52" style="edgeStyle=orthogonalEdgeStyle;rounded=0;orthogonalLoop=1;jettySize=auto;html=1;exitX=0;exitY=0.25;exitDx=0;exitDy=0;exitPerimeter=0;endArrow=none;endFill=0;fillColor=#f8cecc;strokeColor=#b85450;" edge="1" parent="1" source="NyMUniim3CBgUQEtmCb4-17">
          <mxGeometry relative="1" as="geometry">
            <mxPoint x="400" y="845.0833333333335" as="targetPoint" />
          </mxGeometry>
        </mxCell>
        <mxCell id="NyMUniim3CBgUQEtmCb4-53" style="edgeStyle=orthogonalEdgeStyle;rounded=0;orthogonalLoop=1;jettySize=auto;html=1;exitX=0;exitY=0.75;exitDx=0;exitDy=0;exitPerimeter=0;endArrow=none;endFill=0;fillColor=#e1d5e7;strokeColor=#9673a6;" edge="1" parent="1" source="NyMUniim3CBgUQEtmCb4-17">
          <mxGeometry relative="1" as="geometry">
            <mxPoint x="430" y="875.0833333333335" as="targetPoint" />
          </mxGeometry>
        </mxCell>
        <mxCell id="NyMUniim3CBgUQEtmCb4-67" style="edgeStyle=orthogonalEdgeStyle;rounded=0;orthogonalLoop=1;jettySize=auto;html=1;fillColor=#dae8fc;strokeColor=#6c8ebf;endArrow=none;endFill=0;" edge="1" parent="1">
          <mxGeometry relative="1" as="geometry">
            <mxPoint x="760" y="410" as="targetPoint" />
            <mxPoint x="640" y="859.9743589743589" as="sourcePoint" />
            <Array as="points">
              <mxPoint x="720" y="860" />
              <mxPoint x="720" y="410" />
            </Array>
          </mxGeometry>
        </mxCell>
        <mxCell id="NyMUniim3CBgUQEtmCb4-77" style="edgeStyle=orthogonalEdgeStyle;rounded=0;orthogonalLoop=1;jettySize=auto;html=1;exitX=1;exitY=0.5;exitDx=0;exitDy=0;exitPerimeter=0;fillColor=#dae8fc;strokeColor=#6c8ebf;endArrow=none;endFill=0;" edge="1" parent="1" source="NyMUniim3CBgUQEtmCb4-17">
          <mxGeometry relative="1" as="geometry">
            <mxPoint x="650.0000000000002" y="859.7777777777778" as="targetPoint" />
          </mxGeometry>
        </mxCell>
        <mxCell id="NyMUniim3CBgUQEtmCb4-17" value="" style="verticalLabelPosition=bottom;shadow=0;dashed=0;align=center;html=1;verticalAlign=top;shape=mxgraph.electrical.logic_gates.logic_gate;operation=or;fillColor=#dae8fc;strokeColor=#6c8ebf;" vertex="1" parent="1">
          <mxGeometry x="520" y="830" width="110" height="60" as="geometry" />
        </mxCell>
        <mxCell id="NyMUniim3CBgUQEtmCb4-54" style="edgeStyle=orthogonalEdgeStyle;rounded=0;orthogonalLoop=1;jettySize=auto;html=1;exitX=0;exitY=0.25;exitDx=0;exitDy=0;exitPerimeter=0;endArrow=none;endFill=0;fillColor=#f8cecc;strokeColor=#b85450;" edge="1" parent="1" source="NyMUniim3CBgUQEtmCb4-18">
          <mxGeometry relative="1" as="geometry">
            <mxPoint x="480" y="840" as="targetPoint" />
          </mxGeometry>
        </mxCell>
        <mxCell id="NyMUniim3CBgUQEtmCb4-56" style="edgeStyle=orthogonalEdgeStyle;rounded=0;orthogonalLoop=1;jettySize=auto;html=1;exitX=0;exitY=0.75;exitDx=0;exitDy=0;exitPerimeter=0;endArrow=none;endFill=0;fillColor=#e1d5e7;strokeColor=#9673a6;" edge="1" parent="1" source="NyMUniim3CBgUQEtmCb4-18">
          <mxGeometry relative="1" as="geometry">
            <mxPoint x="499.9999999999999" y="870" as="targetPoint" />
          </mxGeometry>
        </mxCell>
        <mxCell id="NyMUniim3CBgUQEtmCb4-80" style="edgeStyle=orthogonalEdgeStyle;rounded=0;orthogonalLoop=1;jettySize=auto;html=1;endArrow=none;endFill=0;fillColor=#d5e8d4;strokeColor=#82b366;" edge="1" parent="1" source="NyMUniim3CBgUQEtmCb4-18">
          <mxGeometry relative="1" as="geometry">
            <mxPoint x="689.9999999999998" y="447.89473684210526" as="targetPoint" />
          </mxGeometry>
        </mxCell>
        <mxCell id="NyMUniim3CBgUQEtmCb4-18" value="" style="verticalLabelPosition=bottom;shadow=0;dashed=0;align=center;html=1;verticalAlign=top;shape=mxgraph.electrical.logic_gates.logic_gate;operation=and;fillColor=#d5e8d4;strokeColor=#82b366;" vertex="1" parent="1">
          <mxGeometry x="520" y="905" width="100" height="60" as="geometry" />
        </mxCell>
        <mxCell id="NyMUniim3CBgUQEtmCb4-55" style="edgeStyle=orthogonalEdgeStyle;rounded=0;orthogonalLoop=1;jettySize=auto;html=1;exitX=0;exitY=0.25;exitDx=0;exitDy=0;exitPerimeter=0;endArrow=none;endFill=0;fillColor=#f8cecc;strokeColor=#b85450;" edge="1" parent="1" source="NyMUniim3CBgUQEtmCb4-19">
          <mxGeometry relative="1" as="geometry">
            <mxPoint x="480" y="910" as="targetPoint" />
          </mxGeometry>
        </mxCell>
        <mxCell id="NyMUniim3CBgUQEtmCb4-57" style="edgeStyle=orthogonalEdgeStyle;rounded=0;orthogonalLoop=1;jettySize=auto;html=1;exitX=0;exitY=0.75;exitDx=0;exitDy=0;exitPerimeter=0;endArrow=none;endFill=0;fillColor=#e1d5e7;strokeColor=#9673a6;" edge="1" parent="1" source="NyMUniim3CBgUQEtmCb4-19">
          <mxGeometry relative="1" as="geometry">
            <mxPoint x="499.9999999999999" y="940" as="targetPoint" />
          </mxGeometry>
        </mxCell>
        <mxCell id="NyMUniim3CBgUQEtmCb4-71" style="edgeStyle=orthogonalEdgeStyle;rounded=0;orthogonalLoop=1;jettySize=auto;html=1;fillColor=#b0e3e6;strokeColor=#0e8088;endArrow=none;endFill=0;" edge="1" parent="1">
          <mxGeometry relative="1" as="geometry">
            <mxPoint x="810" y="490" as="targetPoint" />
            <mxPoint x="600" y="1005.0285714285715" as="sourcePoint" />
            <Array as="points">
              <mxPoint x="760" y="1005" />
              <mxPoint x="760" y="490" />
            </Array>
          </mxGeometry>
        </mxCell>
        <mxCell id="NyMUniim3CBgUQEtmCb4-19" value="" style="verticalLabelPosition=bottom;shadow=0;dashed=0;align=center;html=1;verticalAlign=top;shape=mxgraph.electrical.logic_gates.logic_gate;operation=xor;fillColor=#b0e3e6;strokeColor=#0e8088;" vertex="1" parent="1">
          <mxGeometry x="520" y="980" width="100" height="60" as="geometry" />
        </mxCell>
        <mxCell id="NyMUniim3CBgUQEtmCb4-20" value="" style="endArrow=none;dashed=1;html=1;dashPattern=1 3;strokeWidth=2;rounded=0;" edge="1" parent="1">
          <mxGeometry width="50" height="50" relative="1" as="geometry">
            <mxPoint x="560" y="820" as="sourcePoint" />
            <mxPoint x="560" y="600" as="targetPoint" />
          </mxGeometry>
        </mxCell>
        <mxCell id="NyMUniim3CBgUQEtmCb4-21" value="0" style="text;html=1;align=center;verticalAlign=middle;resizable=0;points=[];autosize=1;strokeColor=none;fillColor=none;" vertex="1" parent="1">
          <mxGeometry x="550" y="125" width="30" height="30" as="geometry" />
        </mxCell>
        <mxCell id="NyMUniim3CBgUQEtmCb4-22" value="0" style="text;html=1;align=center;verticalAlign=middle;resizable=0;points=[];autosize=1;strokeColor=none;fillColor=none;" vertex="1" parent="1">
          <mxGeometry x="550" y="200" width="30" height="30" as="geometry" />
        </mxCell>
        <mxCell id="NyMUniim3CBgUQEtmCb4-23" value="0" style="text;html=1;align=center;verticalAlign=middle;resizable=0;points=[];autosize=1;strokeColor=none;fillColor=none;" vertex="1" parent="1">
          <mxGeometry x="550" y="275" width="30" height="30" as="geometry" />
        </mxCell>
        <mxCell id="NyMUniim3CBgUQEtmCb4-24" value="1" style="text;html=1;align=center;verticalAlign=middle;resizable=0;points=[];autosize=1;strokeColor=none;fillColor=none;" vertex="1" parent="1">
          <mxGeometry x="550" y="390" width="30" height="30" as="geometry" />
        </mxCell>
        <mxCell id="NyMUniim3CBgUQEtmCb4-25" value="1" style="text;html=1;align=center;verticalAlign=middle;resizable=0;points=[];autosize=1;fillColor=none;" vertex="1" parent="1">
          <mxGeometry x="550" y="465" width="30" height="30" as="geometry" />
        </mxCell>
        <mxCell id="NyMUniim3CBgUQEtmCb4-26" value="1" style="text;html=1;align=center;verticalAlign=middle;resizable=0;points=[];autosize=1;strokeColor=none;fillColor=none;" vertex="1" parent="1">
          <mxGeometry x="550" y="540" width="30" height="30" as="geometry" />
        </mxCell>
        <mxCell id="NyMUniim3CBgUQEtmCb4-27" value="31" style="text;html=1;align=center;verticalAlign=middle;resizable=0;points=[];autosize=1;strokeColor=none;fillColor=none;" vertex="1" parent="1">
          <mxGeometry x="540" y="845" width="40" height="30" as="geometry" />
        </mxCell>
        <mxCell id="NyMUniim3CBgUQEtmCb4-28" value="31" style="text;html=1;align=center;verticalAlign=middle;resizable=0;points=[];autosize=1;strokeColor=none;fillColor=none;" vertex="1" parent="1">
          <mxGeometry x="545" y="920" width="40" height="30" as="geometry" />
        </mxCell>
        <mxCell id="NyMUniim3CBgUQEtmCb4-29" value="31" style="text;html=1;align=center;verticalAlign=middle;resizable=0;points=[];autosize=1;strokeColor=none;fillColor=none;" vertex="1" parent="1">
          <mxGeometry x="545" y="995" width="40" height="30" as="geometry" />
        </mxCell>
        <mxCell id="NyMUniim3CBgUQEtmCb4-30" value="" style="endArrow=none;html=1;rounded=0;shape=link;" edge="1" parent="1">
          <mxGeometry width="50" height="50" relative="1" as="geometry">
            <mxPoint x="400" y="1040" as="sourcePoint" />
            <mxPoint x="400" y="110" as="targetPoint" />
          </mxGeometry>
        </mxCell>
        <mxCell id="NyMUniim3CBgUQEtmCb4-33" value="" style="endArrow=none;html=1;rounded=0;shape=link;" edge="1" parent="1">
          <mxGeometry width="50" height="50" relative="1" as="geometry">
            <mxPoint x="430" y="1040" as="sourcePoint" />
            <mxPoint x="430" y="150" as="targetPoint" />
          </mxGeometry>
        </mxCell>
        <mxCell id="NyMUniim3CBgUQEtmCb4-34" style="edgeStyle=orthogonalEdgeStyle;rounded=0;orthogonalLoop=1;jettySize=auto;html=1;exitX=0.5;exitY=1;exitDx=0;exitDy=0;shape=link;" edge="1" parent="1">
          <mxGeometry relative="1" as="geometry">
            <mxPoint x="430" y="180" as="targetPoint" />
            <mxPoint x="350" y="179.87" as="sourcePoint" />
          </mxGeometry>
        </mxCell>
        <mxCell id="NyMUniim3CBgUQEtmCb4-58" value="" style="shape=trapezoid;perimeter=trapezoidPerimeter;whiteSpace=wrap;html=1;fixedSize=1;rotation=90;" vertex="1" parent="1">
          <mxGeometry x="810" y="440" width="170" height="60" as="geometry" />
        </mxCell>
        <mxCell id="NyMUniim3CBgUQEtmCb4-60" value="" style="endArrow=none;html=1;rounded=0;entryX=0.167;entryY=0.973;entryDx=0;entryDy=0;entryPerimeter=0;shape=link;" edge="1" parent="1">
          <mxGeometry width="50" height="50" relative="1" as="geometry">
            <mxPoint x="810" y="404.79" as="sourcePoint" />
            <mxPoint x="866.6199999999999" y="405.18" as="targetPoint" />
          </mxGeometry>
        </mxCell>
        <mxCell id="NyMUniim3CBgUQEtmCb4-61" value="" style="endArrow=none;html=1;rounded=0;entryX=0.167;entryY=0.973;entryDx=0;entryDy=0;entryPerimeter=0;shape=link;" edge="1" parent="1">
          <mxGeometry width="50" height="50" relative="1" as="geometry">
            <mxPoint x="810" y="450" as="sourcePoint" />
            <mxPoint x="867" y="450" as="targetPoint" />
          </mxGeometry>
        </mxCell>
        <mxCell id="NyMUniim3CBgUQEtmCb4-62" value="" style="endArrow=none;html=1;rounded=0;entryX=0.167;entryY=0.973;entryDx=0;entryDy=0;entryPerimeter=0;shape=link;" edge="1" parent="1">
          <mxGeometry width="50" height="50" relative="1" as="geometry">
            <mxPoint x="810" y="487.65" as="sourcePoint" />
            <mxPoint x="867" y="487.65" as="targetPoint" />
          </mxGeometry>
        </mxCell>
        <mxCell id="NyMUniim3CBgUQEtmCb4-63" value="" style="endArrow=none;html=1;rounded=0;entryX=0.167;entryY=0.973;entryDx=0;entryDy=0;entryPerimeter=0;shape=link;" edge="1" parent="1">
          <mxGeometry width="50" height="50" relative="1" as="geometry">
            <mxPoint x="810" y="524.65" as="sourcePoint" />
            <mxPoint x="867" y="524.65" as="targetPoint" />
          </mxGeometry>
        </mxCell>
        <mxCell id="NyMUniim3CBgUQEtmCb4-64" value="4:1 Mux" style="text;html=1;align=center;verticalAlign=middle;resizable=0;points=[];autosize=1;strokeColor=none;fillColor=none;" vertex="1" parent="1">
          <mxGeometry x="860" y="455" width="70" height="30" as="geometry" />
        </mxCell>
        <mxCell id="NyMUniim3CBgUQEtmCb4-81" value="" style="endArrow=none;html=1;rounded=0;entryX=0.167;entryY=0.973;entryDx=0;entryDy=0;entryPerimeter=0;shape=link;" edge="1" parent="1">
          <mxGeometry width="50" height="50" relative="1" as="geometry">
            <mxPoint x="923" y="465" as="sourcePoint" />
            <mxPoint x="980" y="465" as="targetPoint" />
          </mxGeometry>
        </mxCell>
        <mxCell id="NyMUniim3CBgUQEtmCb4-82" value="" style="endArrow=none;html=1;rounded=0;" edge="1" parent="1">
          <mxGeometry width="50" height="50" relative="1" as="geometry">
            <mxPoint x="820" y="420" as="sourcePoint" />
            <mxPoint x="850" y="390" as="targetPoint" />
          </mxGeometry>
        </mxCell>
        <mxCell id="NyMUniim3CBgUQEtmCb4-83" value="" style="endArrow=none;html=1;rounded=0;" edge="1" parent="1">
          <mxGeometry width="50" height="50" relative="1" as="geometry">
            <mxPoint x="820" y="465" as="sourcePoint" />
            <mxPoint x="850" y="435" as="targetPoint" />
          </mxGeometry>
        </mxCell>
        <mxCell id="NyMUniim3CBgUQEtmCb4-84" value="" style="endArrow=none;html=1;rounded=0;" edge="1" parent="1">
          <mxGeometry width="50" height="50" relative="1" as="geometry">
            <mxPoint x="820" y="500" as="sourcePoint" />
            <mxPoint x="850" y="470" as="targetPoint" />
          </mxGeometry>
        </mxCell>
        <mxCell id="NyMUniim3CBgUQEtmCb4-85" value="" style="endArrow=none;html=1;rounded=0;" edge="1" parent="1">
          <mxGeometry width="50" height="50" relative="1" as="geometry">
            <mxPoint x="820" y="545" as="sourcePoint" />
            <mxPoint x="850" y="515" as="targetPoint" />
          </mxGeometry>
        </mxCell>
        <mxCell id="NyMUniim3CBgUQEtmCb4-86" value="&lt;font style=&quot;font-size: 8px;&quot;&gt;32&lt;/font&gt;" style="text;html=1;align=center;verticalAlign=middle;resizable=0;points=[];autosize=1;strokeColor=none;fillColor=none;" vertex="1" parent="1">
          <mxGeometry x="815" y="380" width="30" height="30" as="geometry" />
        </mxCell>
        <mxCell id="NyMUniim3CBgUQEtmCb4-88" value="&lt;font style=&quot;font-size: 8px;&quot;&gt;32&lt;/font&gt;" style="text;html=1;align=center;verticalAlign=middle;resizable=0;points=[];autosize=1;strokeColor=none;fillColor=none;" vertex="1" parent="1">
          <mxGeometry x="815" y="425" width="30" height="30" as="geometry" />
        </mxCell>
        <mxCell id="NyMUniim3CBgUQEtmCb4-89" value="&lt;font style=&quot;font-size: 8px;&quot;&gt;32&lt;/font&gt;" style="text;html=1;align=center;verticalAlign=middle;resizable=0;points=[];autosize=1;strokeColor=none;fillColor=none;" vertex="1" parent="1">
          <mxGeometry x="815" y="465" width="30" height="30" as="geometry" />
        </mxCell>
        <mxCell id="NyMUniim3CBgUQEtmCb4-90" value="&lt;font style=&quot;font-size: 8px;&quot;&gt;32&lt;/font&gt;" style="text;html=1;align=center;verticalAlign=middle;resizable=0;points=[];autosize=1;strokeColor=none;fillColor=none;" vertex="1" parent="1">
          <mxGeometry x="815" y="500" width="30" height="30" as="geometry" />
        </mxCell>
        <mxCell id="NyMUniim3CBgUQEtmCb4-91" value="" style="endArrow=none;html=1;rounded=0;" edge="1" parent="1">
          <mxGeometry width="50" height="50" relative="1" as="geometry">
            <mxPoint x="935" y="480" as="sourcePoint" />
            <mxPoint x="965" y="450" as="targetPoint" />
          </mxGeometry>
        </mxCell>
        <mxCell id="NyMUniim3CBgUQEtmCb4-92" value="&lt;font style=&quot;font-size: 8px;&quot;&gt;32&lt;/font&gt;" style="text;html=1;align=center;verticalAlign=middle;resizable=0;points=[];autosize=1;strokeColor=none;fillColor=none;" vertex="1" parent="1">
          <mxGeometry x="930" y="435" width="30" height="30" as="geometry" />
        </mxCell>
        <mxCell id="NyMUniim3CBgUQEtmCb4-93" value="" style="endArrow=none;html=1;rounded=0;" edge="1" parent="1">
          <mxGeometry width="50" height="50" relative="1" as="geometry">
            <mxPoint x="365" y="125" as="sourcePoint" />
            <mxPoint x="395" y="95" as="targetPoint" />
          </mxGeometry>
        </mxCell>
        <mxCell id="NyMUniim3CBgUQEtmCb4-94" value="&lt;font style=&quot;font-size: 8px;&quot;&gt;32&lt;/font&gt;" style="text;html=1;align=center;verticalAlign=middle;resizable=0;points=[];autosize=1;strokeColor=none;fillColor=none;" vertex="1" parent="1">
          <mxGeometry x="360" y="80" width="30" height="30" as="geometry" />
        </mxCell>
        <mxCell id="NyMUniim3CBgUQEtmCb4-95" value="" style="endArrow=none;html=1;rounded=0;" edge="1" parent="1">
          <mxGeometry width="50" height="50" relative="1" as="geometry">
            <mxPoint x="365" y="195" as="sourcePoint" />
            <mxPoint x="395" y="165" as="targetPoint" />
          </mxGeometry>
        </mxCell>
        <mxCell id="NyMUniim3CBgUQEtmCb4-96" value="&lt;font style=&quot;font-size: 8px;&quot;&gt;32&lt;/font&gt;" style="text;html=1;align=center;verticalAlign=middle;resizable=0;points=[];autosize=1;strokeColor=none;fillColor=none;" vertex="1" parent="1">
          <mxGeometry x="360" y="150" width="30" height="30" as="geometry" />
        </mxCell>
        <mxCell id="NyMUniim3CBgUQEtmCb4-97" value="" style="endArrow=none;html=1;rounded=0;entryX=1;entryY=0.75;entryDx=0;entryDy=0;" edge="1" parent="1" target="NyMUniim3CBgUQEtmCb4-58">
          <mxGeometry width="50" height="50" relative="1" as="geometry">
            <mxPoint x="881" y="590" as="sourcePoint" />
            <mxPoint x="920" y="540" as="targetPoint" />
          </mxGeometry>
        </mxCell>
        <mxCell id="NyMUniim3CBgUQEtmCb4-98" value="" style="endArrow=none;html=1;rounded=0;entryX=1;entryY=0.75;entryDx=0;entryDy=0;" edge="1" parent="1">
          <mxGeometry width="50" height="50" relative="1" as="geometry">
            <mxPoint x="911" y="590" as="sourcePoint" />
            <mxPoint x="911" y="540" as="targetPoint" />
          </mxGeometry>
        </mxCell>
        <mxCell id="NyMUniim3CBgUQEtmCb4-99" value="sel" style="text;html=1;align=center;verticalAlign=middle;resizable=0;points=[];autosize=1;strokeColor=none;fillColor=none;" vertex="1" parent="1">
          <mxGeometry x="875" y="588" width="40" height="30" as="geometry" />
        </mxCell>
        <mxCell id="NyMUniim3CBgUQEtmCb4-100" value="&lt;font style=&quot;font-size: 4px;&quot;&gt;1&lt;/font&gt;" style="text;html=1;align=center;verticalAlign=middle;resizable=0;points=[];autosize=1;strokeColor=none;fillColor=none;" vertex="1" parent="1">
          <mxGeometry x="860" y="530" width="30" height="30" as="geometry" />
        </mxCell>
        <mxCell id="NyMUniim3CBgUQEtmCb4-101" value="&lt;font style=&quot;font-size: 4px;&quot;&gt;0&lt;/font&gt;" style="text;html=1;align=center;verticalAlign=middle;resizable=0;points=[];autosize=1;strokeColor=none;fillColor=none;" vertex="1" parent="1">
          <mxGeometry x="890" y="520" width="30" height="30" as="geometry" />
        </mxCell>
        <mxCell id="NyMUniim3CBgUQEtmCb4-102" value="R" style="text;html=1;align=center;verticalAlign=middle;resizable=0;points=[];autosize=1;strokeColor=none;fillColor=none;" vertex="1" parent="1">
          <mxGeometry x="980" y="450" width="30" height="30" as="geometry" />
        </mxCell>
      </root>
    </mxGraphModel>
  </diagram>
</mxfile>
